<svg width="100" height="100" viewBox="0 0 100 100" fill="none" xmlns="http://www.w3.org/2000/svg">
<circle cx="50" cy="50" r="50" fill="#EBEBEB"/>
<path d="M50 23C52.6842 23 55.3081 23.7918 57.5399 25.2752C59.7717 26.7586 61.5112 28.867 62.5384 31.3338C63.5656 33.8006 63.8343 36.515 63.3107 39.1337C62.787 41.7525 61.4944 44.1579 59.5964 46.0459C57.6984 47.934 55.2803 49.2197 52.6477 49.7406C50.0151 50.2615 47.2863 49.9942 44.8064 48.9724C42.3266 47.9506 40.207 46.2203 38.7158 44.0002C37.2245 41.7801 36.4286 39.17 36.4286 36.5L36.4421 35.9141C36.5939 32.4385 38.0886 29.1554 40.6146 26.7494C43.1406 24.3434 46.5027 23.0002 50 23ZM55.4286 55.4C59.0279 55.4 62.4799 56.8223 65.025 59.3541C67.5702 61.8858 69 65.3196 69 68.9V71.6C69 73.0322 68.4281 74.4057 67.41 75.4184C66.392 76.4311 65.0112 77 63.5714 77H36.4286C34.9888 77 33.608 76.4311 32.59 75.4184C31.5719 74.4057 31 73.0322 31 71.6V68.9C31 65.3196 32.4298 61.8858 34.975 59.3541C37.5201 56.8223 40.9721 55.4 44.5714 55.4H55.4286Z" fill="#737373" fill-opacity="0.61"/>
</svg>
